<svg id="Layer_1" data-name="Layer 1" xmlns="http://www.w3.org/2000/svg" viewBox="0 0 744 920"><defs><style>.cls-1{fill:#fff;}</style></defs><path class="cls-1" d="M503.8,324.6c-2.37,2.28-2.83,6.15-8.91,15.12-5.28,7.81-9.57,8.79-20.16,15.39-7.37,4.6-12,3.65-16.79,10.68-7.48,11-7.19,24-7,31.86.23,10.77,2.66,15.55,1.65,29.37-.37,5.06-1.21,11.42-5.89,14.82-.93.68-7.81,1.23-7.81,1.23s-12.88-27.25-7.53-55.61c1.46-7.75,3.33-19.46,1.49-20.21-1.39-.56-2.09-.14-8.65,8-10.6,13.18-10.8,8.23-14.16,15.32-2.39,5-5.34,14.68-6.41,25.93-1.27,13.22.14,15.16-2.27,20.26-4.39,9.3-15,15.34-18,13.18-1.5-1.08-.71-3.94.12-9.12,3.14-19.37-1.25-19.64,2-35.38,1.5-7.15,3.26-11.2,4-20.22.32-4.09,1.39-3.06,2.24-5,.58-1.33,1.13-2.55,1.84-3.83-7.12,8.5-15.89,21-20.78,37.3-.79,2.61-3.59,12.5-12.26,18.94-4,2.94-10.82,6.4-13.8,4-1.13-.9-2.54-3.32,2.38-19.61,4.52-15,6.85-22.67,13-32.21,5.52-8.52,12.46-16,17.28-21.15,5.24-5.62,7.69-7.63,7.39-8-.67-.84-13,9.15-21.82,21.55-4.83,6.79-5.32,10.41-11.55,15.83a28.14,28.14,0,0,1-10.84,5.55c-4.59,1.42-13.57,3.15-15.12.23-.94-1.77,1.21-4.55,4-8.1,11.83-15,16-20.45,17.95-22.55,9.3-10,15.71-17,18.4-19,7.22-5.5,10-5.6,21.19-12a235.64,235.64,0,0,0,23.25-15.76c16.83-13,16.39-17.15,26.21-24,10-7,16.11-6.61,38.4-11.09q-51.06-43-143.47-43H244.55V611.45a77.66,77.66,0,0,1,3.59-9.65c3.82-8.62,7.87-10.34,17.13-18.72,6.43-5.82,11.18-5.71,14.63-13.48,5.41-12.17,2.83-24.92,1.28-32.59-2.13-10.56-5.36-14.84-6.81-28.62-.53-5.05-.83-11.45,3.18-15.63.79-.83,7.47-2.59,7.47-2.59s17.48,24.55,17.24,53.41c-.07,7.88.15,19.74,2.1,20.15,1.47.31,2.08-.23,7.09-9.42,8.11-14.85,9.18-10,11.24-17.58,1.46-5.38,2.66-15.39,1.73-26.66-1.09-13.23-2.83-14.9-1.35-20.34,2.67-9.93,12-17.74,15.35-16.15,1.66.8,1.39,3.76,1.48,9,.34,19.62,4.71,19.11,4.25,35.19-.21,7.3-1.23,11.6-.32,20.6.41,4.08-.83,3.26-1.32,5.32-.34,1.41-.67,2.72-1.13,4.1,5.5-9.62,11.92-23.5,13.86-40.38.31-2.72,1.32-13,8.72-20.81,3.37-3.59,9.51-8.22,12.86-6.42,1.28.68,3.09,2.81,1.13,19.72-1.81,15.53-2.74,23.52-7.13,34-3.92,9.36-9.44,17.92-13.26,23.86-4.17,6.46-6.22,8.87-5.87,9.19.82.71,11.18-11.31,17.67-25.07,3.56-7.53,3.4-11.19,8.57-17.62a28.35,28.35,0,0,1,9.69-7.38c4.27-2.21,12.8-5.5,14.85-2.9,1.23,1.57-.39,4.69-2.52,8.68-9,16.85-12.12,23-13.68,25.37-7.39,11.45-12.46,19.49-14.75,22-6.13,6.69-8.87,7.28-18.73,15.6a235.46,235.46,0,0,0-20.09,19.62C318.42,621,319.59,625,311.14,633.53c-9.26,9.31-15.57,9.41-40.89,19.73-9.62,3.92-17.15,7.34-23.18,10.25h72q109.37,0,164.42-53.78t55-159.21q0-78.52-30.08-127.49A6.23,6.23,0,0,0,503.8,324.6Z"/><path class="cls-1" d="M404.7,363.39c6.75-6.44-.17-.14,0,0Z"/><path class="cls-1" d="M332.73,562.56c-5.5,7.53.19.1,0,0Z"/><path class="cls-1" d="M0,0V920H744V0ZM532.56,647.5q-70.69,68.91-203.46,68.9H183.39v-526H344.57q122.69,0,190.69,68t68,190Q603.25,578.62,532.56,647.5Z"/></svg>