<?xml version="1.0" encoding="utf-8"?>
<!-- Generator: Adobe Illustrator 26.0.0, SVG Export Plug-In . SVG Version: 6.00 Build 0)  -->
<svg version="1.1" id="Layer_1" xmlns="http://www.w3.org/2000/svg" xmlns:xlink="http://www.w3.org/1999/xlink" x="0px" y="0px"
	 viewBox="0 0 24 28" style="enable-background:new 0 0 24 28;" xml:space="preserve">
<style type="text/css">
	.st0{fill:#FFFFFF;}
</style>
<path class="st0" d="M19.4,6.7c-1.8-1.8-4.2-2.9-6.9-2.9c-5.4,0-9.8,4.4-9.8,9.8c0,1.8,0.5,3.5,1.3,4.9l0,0l-1.4,5.1l5.2-1.4
	c1.4,0.8,3,1.2,4.7,1.2h0c5.4,0,9.8-4.4,9.8-9.8C22.3,10.9,21.2,8.4,19.4,6.7L19.4,6.7L19.4,6.7z M12.5,21.7L12.5,21.7L12.5,21.7
	c-1.5,0-3-0.4-4.2-1.2l0,0l-0.3-0.2L5,21.2l0.8-3l-0.2-0.3c-0.8-1.2-1.2-2.7-1.2-4.3c0-4.5,3.6-8.1,8.1-8.1s8.1,3.6,8.1,8.1
	S17,21.7,12.5,21.7L12.5,21.7L12.5,21.7z M17,15.6c-0.2-0.1-1.4-0.7-1.7-0.8c-0.2-0.1-0.4-0.1-0.6,0.1c-0.2,0.2-0.6,0.8-0.8,1
	c-0.1,0.2-0.3,0.2-0.5,0.1c-0.8-0.3-1.4-0.7-2-1.2l0,0c-0.5-0.5-1-1-1.3-1.7l0,0c-0.1-0.2,0-0.4,0.1-0.5c0.1-0.1,0.2-0.3,0.4-0.4
	c0.1-0.1,0.2-0.3,0.2-0.4l0,0c0-0.1,0-0.1,0-0.2c0-0.1,0-0.2-0.1-0.2l0,0c-0.1-0.1-0.6-1.3-0.8-1.8C9.9,9,9.7,9.1,9.5,9.1
	c-0.1,0-0.3,0-0.5,0c-0.3,0-0.5,0.1-0.7,0.3l0,0c-0.5,0.5-0.9,1.2-0.9,2c0,0,0,0,0,0.1v0c0.1,1,0.4,1.8,1,2.5l0,0
	c1.1,1.6,2.5,2.8,4.1,3.7l0.1,0c0.4,0.2,0.8,0.3,1.3,0.5l0.1,0c0.3,0.1,0.6,0.1,1,0.1c0.2,0,0.4,0,0.6-0.1l0,0
	c0.7-0.1,1.3-0.6,1.6-1.2l0,0c0.1-0.2,0.2-0.5,0.2-0.8c0-0.1,0-0.2,0-0.4l0,0C17.4,15.8,17.2,15.8,17,15.6L17,15.6z"/>
</svg>
